OpenSim_Sub03_EMGBaseline_GRF.mot
version=1
nRows=64
nColumns=19
inDegrees=no
endheader
time	lFx	lFy	lFz	lCOPx	lCOPy	lCOPz	rFx	rFy	rFz	rCOPx	rCOPy	rCOPz	lMx	lMy	lMz	rMx	rMy	rMz
36.86000000	3.29310776	0.34014972	-6.77197926	0.00108361	0	-0.00068412	-40.74700425	787.50896921	-57.51300749	1.26389513	0	-0.39990457	0	-0.00954814	0	0	-4.62045016	0
36.87000000	3.13582496	0.47425806	-6.73483168	0.00065482	0	-0.00041495	-36.15490710	778.58087992	-56.72071679	1.25891174	0	-0.39858270	0	-0.00592344	0	0	-4.15180338	0
36.88000000	2.99085999	0.50067821	-6.77287732	0.00024247	0	-0.00015432	-31.84418533	769.04497129	-55.77898840	1.25402312	0	-0.39735119	0	-0.00226032	0	0	-3.71885460	0
36.89000000	2.86685590	0.51738941	-6.83519866	0.00002290	0	-0.00001505	-28.15472238	760.28999010	-54.76284003	1.24915676	0	-0.39620144	0	-0.00026123	0	0	-3.23748892	-0.00000000
36.90000000	2.76010045	0.60920844	-6.90075327	-0.00004547	0	0.00002855	-25.42300065	752.95531860	-53.75044921	1.24444893	0	-0.39513760	0	0.00038536	0	0	-2.73306168	0
36.91000000	2.67338598	0.69660709	-6.91986634	-0.00004272	0	0.00002700	-23.83435782	746.72916690	-52.87726807	1.24001394	0	-0.39418050	0	0.00037976	0	0	-2.23494338	0
36.92000000	2.60391667	0.79678129	-6.91672639	-0.00002247	0	0.00001425	-23.20550286	741.13240391	-52.16647595	1.23576508	0	-0.39332816	0	0.00020472	0	0	-1.72476681	0.00000000
36.93000000	2.54522519	0.89469684	-6.91519322	-0.00000686	0	0.00000438	-23.05754355	736.01381015	-51.47734787	1.23158447	0	-0.39255222	0	0.00006499	0	0	-1.21559654	0
36.94000000	2.48177958	0.94187544	-6.92426828	0.00000039	0	-0.00000023	-22.76905933	731.38742458	-50.73225828	1.22737526	0	-0.39184508	0	-0.00000156	0	0	-0.75109017	0
36.95000000	2.42094215	0.89479635	-6.96463734	0.00000212	0	-0.00000134	-21.94036939	727.42357997	-50.12624114	1.22302171	0	-0.39123568	0	-0.00001840	0	0	-0.35094863	-0.00000000
36.96000000	2.37605569	0.80240847	-6.97776764	0.00000161	0	-0.00000102	-20.50743115	724.24328822	-49.71671487	1.21828367	0	-0.39070797	0	-0.00001443	0	0	-0.00037805	0.00000000
36.97000000	2.33989641	0.67232964	-6.98025644	0.00000074	0	-0.00000047	-18.48087480	721.82122135	-49.38687048	1.21312577	0	-0.39022546	0	-0.00000679	0	0	0.28998957	0
36.98000000	2.28758861	0.56454343	-6.97826216	0.00000017	0	-0.00000011	-15.74172017	720.12608054	-49.14288938	1.20752801	0	-0.38980623	0	-0.00000168	0	0	0.51347152	0
36.99000000	2.23667470	0.53467807	-6.98226140	-0.00000005	0	0.00000003	-12.46128510	719.26492939	-48.95903210	1.20158703	0	-0.38947826	0	0.00000041	0	0	0.70147417	-0.00000000
37	2.22453474	0.50386997	-6.95915767	-0.00000008	0	0.00000005	-9.07704412	719.30255258	-48.79540652	1.19543850	0	-0.38926252	0	0.00000077	0	0	0.87813462	0.00000000
37.01000000	2.24807338	0.46207623	-6.91386667	-0.00000006	0	0.00000004	-5.79268005	720.21472002	-48.75537487	1.18917014	0	-0.38915912	0	0.00000053	0	0	1.06634003	0
37.02000000	2.27541949	0.40968219	-6.88249882	-0.00000004	0	0.00000002	-2.53212917	721.83597485	-48.81627253	1.18271217	0	-0.38915466	0	0.00000036	0	0	1.30832883	0.00000000
37.03000000	2.28517490	0.33924402	-6.84863436	-0.00000007	0	0.00000003	0.68505871	724.01253796	-48.85277392	1.17625094	0	-0.38921234	0	0.00000045	0	0	1.59039179	0
37.04000000	2.28665337	0.32639115	-6.81234843	-0.00000013	0	0.00000005	3.77857413	726.37331386	-48.75648513	1.16990117	0	-0.38932001	0	0.00000069	0	0	1.88634866	0
37.05000000	2.28442218	0.41689824	-6.79744400	-0.00000015	0	0.00000007	6.77931228	728.57488064	-48.55062830	1.16355310	0	-0.38947480	0	0.00000061	0	0	2.17378335	0
37.06000000	2.26115333	0.52656129	-6.77119166	0.00000001	0	-0.00000001	9.80460561	730.54186289	-48.29242697	1.15695024	0	-0.38967047	0	-0.00000079	0	0	2.46063734	0
37.07000000	2.21979360	0.55096748	-6.73841604	0.00000063	0	-0.00000028	12.99281348	732.43866034	-48.00069063	1.15012488	0	-0.38990698	0	-0.00000478	0	0	2.72822805	0.00000000
37.08000000	2.18297770	0.57434295	-6.68773368	0.00000189	0	-0.00000083	16.22399662	734.63814449	-47.74233324	1.14328107	0	-0.39019548	0	-0.00001169	0	0	2.96486990	0
37.09000000	2.18626796	0.68494376	-6.66347210	0.00000339	0	-0.00000148	19.36610503	737.35145210	-47.50885426	1.13656518	0	-0.39052726	0	-0.00001764	0	0	3.18359168	0
37.10000000	2.20451277	0.79851407	-6.66065502	0.00000320	0	-0.00000137	22.50602182	740.44808662	-47.27982573	1.12998688	0	-0.39085015	0	-0.00000964	0	0	3.39708054	-0.00000000
37.11000000	2.20965226	0.82547751	-6.67739035	-0.00000309	0	0.00000141	25.89274973	743.57808448	-47.11188809	1.12328159	0	-0.39111809	0	0.00003741	0	0	3.59804807	0.00000000
37.12000000	2.19335044	0.82817748	-6.71386141	-0.00002156	0	0.00000950	29.54141853	746.57280353	-47.12407386	1.11632693	0	-0.39133518	0	0.00015098	0	0	3.79796925	0
37.13000000	2.18225953	0.85440974	-6.75327058	-0.00005424	0	0.00002372	33.30902039	749.48166126	-47.42409666	1.10935388	0	-0.39152308	0	0.00031997	0	0	3.95486048	0.00000000
37.14000000	2.17510499	0.91278681	-6.81254019	-0.00008417	0	0.00003652	37.10908031	752.31993672	-48.00871865	1.10247810	0	-0.39167553	0	0.00040625	0	0	4.04924601	0
37.15000000	2.13321067	0.99136480	-6.85251057	-0.00005178	0	0.00002176	41.08216241	754.97689805	-48.83711098	1.09559547	0	-0.39183758	0	0.00002938	0	0	4.10387155	-0.00000000
37.16000000	2.02740341	1.21046879	-6.83184195	0.00016078	0	-0.00007191	45.24211655	757.35528006	-49.73211034	1.08875077	0	-0.39202841	0	-0.00145058	0	0	4.14201076	0
37.17000000	1.87194187	1.49878695	-6.77768651	0.00068814	0	-0.00030248	49.48190538	759.31443795	-50.48812917	1.08200148	0	-0.39223463	0	-0.00454856	0	0	4.15050755	0
37.18000000	1.85445861	1.52214378	-6.75265000	0.00149527	0	-0.00065259	53.74191518	760.47007900	-50.99370415	1.07531180	0	-0.39247282	0	-0.00841296	0	0	4.11382144	-0.00000000
37.19000000	2.03252897	1.18372044	-6.80296411	0.00196451	0	-0.00084920	58.11563326	760.41233082	-51.15149342	1.06845242	0	-0.39275154	0	-0.00848652	0	0	4.08411758	0
37.20000000	2.21773809	0.69544166	-6.88079532	0.00033926	0	-0.00012305	62.71797795	759.07935544	-50.90290962	1.06143398	0	-0.39302903	0	0.00594186	0	0	4.07487166	0
37.21000000	2.19597945	0.24882627	-6.94296133	-0.00641143	0	0.00284367	67.45280256	756.55277962	-50.35771103	1.05436960	0	-0.39327930	0	0.05035521	0	0	4.05143867	0
37.22000000	1.67335061	-0.00554032	-6.97374485	-0.02089811	0	0.00916498	72.14879556	752.78559939	-49.62019219	1.04740715	0	-0.39354972	0	0.13149885	0	0	4.00874020	0.00000000
37.23000000	0.31349555	0.34782780	-6.96092541	-0.03961307	0	0.01725156	76.70145415	747.66923072	-48.70086726	1.04050446	0	-0.39385818	0	0.21129599	0	0	3.95065451	0
37.24000000	-1.77977247	2.30083349	-7.09433495	-0.04192777	0	0.01801764	81.27011652	741.03585426	-47.68378099	1.03345131	0	-0.39419088	0	0.14769743	0	0	3.85524806	0
37.25000000	-3.33770215	7.61350200	-7.59686682	0.02195674	0	-0.01030238	86.05197098	732.72668156	-46.66237974	1.02620869	0	-0.39450726	0	-0.34942313	0	0	3.72520305	0.00000000
37.26000000	-2.04292763	19.41287955	-8.57163921	0.22614778	0	-0.09983432	91.06841180	722.67701290	-45.76677752	1.01904159	0	-0.39473689	0	-1.62888852	0	0	3.53680335	0.00000000
37.27000000	3.76441118	42.39772051	-10.14622845	0.60849768	0	-0.26631408	96.10420199	710.36831711	-45.01355374	1.01198418	0	-0.39488174	0	-3.65757551	0	0	3.30636061	0
37.28000000	11.44476266	79.49191206	-11.92488912	1.02826082	0	-0.44747746	101.01866505	694.75110359	-44.17378823	1.00494076	0	-0.39499697	0	-5.20909365	0	0	3.07832101	0
37.29000000	14.37610528	128.02924239	-12.38626504	1.28824746	0	-0.55888697	105.58903784	674.74101039	-43.01096972	0.99805989	0	-0.39510488	0	-5.13331684	0	0	2.85675697	0
37.30000000	8.21433124	182.63559920	-9.40984920	1.39033891	0	-0.60126769	109.38916513	649.30085955	-41.27230313	0.99158810	0	-0.39520537	0	-3.90910848	0	0	2.59707436	0
37.31000000	-6.22625960	241.37844454	-2.59566910	1.40817870	0	-0.60645963	111.93062695	617.63479421	-38.81450891	0.98553806	0	-0.39529443	0	-2.28731710	0	0	2.33335620	0
37.32000000	-25.38185663	305.19909946	6.09694648	1.39866188	0	-0.59941333	112.91926640	579.27208154	-35.71476648	0.97974955	0	-0.39536076	0	-0.48251213	0	0	2.09770670	0
37.33000000	-43.69288009	373.31378410	12.67391972	1.38725457	0	-0.59156787	112.07638468	534.15387356	-32.09298089	0.97420477	0	-0.39530707	0	1.65044862	0	0	1.89000533	0
37.34000000	-56.24525230	439.64134450	15.05004160	1.38052193	0	-0.58607055	108.94776852	482.75396810	-28.13755049	0.96903855	0	-0.39509130	0	3.89900488	0	0	1.71595612	0
37.35000000	-62.70003420	495.98077529	15.97930888	1.37629685	0	-0.58286329	102.93569623	426.29647455	-24.01877142	0.96458504	0	-0.39480806	0	5.75760144	0	0	1.60119261	0
37.36000000	-65.41853124	538.78690062	18.82826551	1.37210591	0	-0.58140558	93.53412002	366.86603115	-19.73431816	0.96127983	0	-0.39480457	0	6.90738444	0	0	1.50693768	0
37.37000000	-66.38864070	569.31900427	24.74280465	1.36750486	0	-0.58124341	80.85154610	307.23321094	-15.35440171	0.96058895	0	-0.39586451	0	7.29821354	0	0	1.39697380	0
37.38000000	-66.43980009	590.91347696	33.51142336	1.36276840	0	-0.58192678	65.96617621	250.77735665	-11.11329933	0.96488674	0	-0.39904725	0	7.07462331	0	0	1.28115667	0
37.39000000	-66.51856168	607.26108828	43.59334491	1.35821916	0	-0.58299026	50.79597882	199.90797909	-7.45679876	0.97524381	0	-0.40487330	0	6.48994512	0	0	1.12421217	0
37.40000000	-66.90877116	621.88081278	52.51253584	1.35376635	0	-0.58404044	37.23349181	155.38353760	-4.68452380	0.98628766	0	-0.41086459	0	5.86155210	0	0	0.91335408	0
37.41000000	-67.01272046	637.78428105	58.43640475	1.34909363	0	-0.58481146	26.26834078	116.82233827	-2.76505324	0.97890768	0	-0.40789443	0	5.50431542	0	0	0.66517644	-0.00000000
37.42000000	-66.39733675	656.46569762	60.87557002	1.34407820	0	-0.58520165	17.69827297	84.07798972	-1.59114177	0.91498026	0	-0.37804209	0	5.59111997	0	0	0.42488917	0
37.43000000	-65.34984484	677.55901587	60.71839831	1.33901703	0	-0.58529565	10.73959613	57.67128705	-1.18052083	0.74908146	0	-0.30129939	0	6.09345456	0	0	0.20580861	-0.00000000
37.44000000	-64.18008708	699.54679308	59.35201535	1.33401363	0	-0.58531174	4.85015546	38.01818633	-1.33052825	0.48058437	0	-0.18351745	0	6.79988540	0	0	-0.00460865	0.00000000
37.45000000	-62.94522599	720.70569365	57.98557703	1.32904464	0	-0.58546968	0.06406270	24.42013859	-1.58651854	0.20527020	0	-0.07320843	0	7.48774571	0	0	-0.07241942	-0.00000000
37.46000000	-61.50792989	739.62922330	57.50149430	1.32423189	0	-0.58586038	-3.27398394	15.45636333	-1.55641423	0.03886049	0	-0.01066279	0	8.01192300	0	0	-0.05721946	0.00000000
37.47000000	-59.82789200	755.33966533	58.03965918	1.31987647	0	-0.58648169	-4.83420973	9.78373011	-1.23035187	-0.02278586	0	0.01070509	0	8.28985773	0	0	-0.02705967	-0.00000000
37.48000000	-58.00254546	766.92628097	59.04466429	1.31609643	0	-0.58728979	-4.30033181	5.96828559	-0.87022443	-0.02862941	0	0.01144767	0	8.31519922	0	0	-0.00673870	0.00000000
37.49000000	-56.07876094	773.88449005	59.97476531	1.31274203	0	-0.58824769	-2.40369380	3.10701910	-0.47578037	-0.01708587	0	0.00641153	0	8.12388837	0	0	0.00170019	0.00000000
